<svg width="24" height="24" viewBox="0 0 24 24" fill="none" xmlns="http://www.w3.org/2000/svg">
<path d="M4.21002 14.0699L0.5 20.48L4.34998 19.83L5.69 23.5L8.96997 17.98" stroke="white" stroke-linejoin="round"/>
<path d="M19.6699 14.16L23.3399 20.48L19.4899 19.83L18.1499 23.5L14.8799 18.02" stroke="white" stroke-linejoin="round"/>
<path d="M12 18.5C16.9706 18.5 21 14.4706 21 9.5C21 4.52944 16.9706 0.5 12 0.5C7.02944 0.5 3 4.52944 3 9.5C3 14.4706 7.02944 18.5 12 18.5Z" stroke="white" stroke-linejoin="round"/>
<path d="M12 4.5L13.5 7.5H16.5L14 10L15 13.5L12 11.62L9 13.5L10 10L7.5 7.5H10.5L12 4.5Z" stroke="white" stroke-linejoin="round"/>
</svg>
